# xmcd CD database file
#
# Track frame offsets:
#	150
#	24445
#	40722
#	60385
#	77447
#	97460
#	109800
#	130117
#	146022
#	165927
#	187870
#
# Disc length: 2683 seconds
#
# Revision: 0
# Processed by: cddbd v1.5.1PL0 Copyright (c) Steve Scherf et al.
# Submitted via: CDex 1.51
#
DISCID=830a790b
DTITLE=マスラヲコミッショナー - 輩×輩×輩
DYEAR=2005
DGENRE=Rock
TTITLE0=流れゆく季節に
TTITLE1=ムサシノ
TTITLE2=絆飛ぶ(Album mix)
TTITLE3=そして僕は・・・
TTITLE4=世界樹の下で
TTITLE5=ひざくりげ
TTITLE6=夏の終わり
TTITLE7=さよなら20世紀
TTITLE8=スクワレナイ少年(Album mix)
TTITLE9=Wind Cafe
TTITLE10=ゲーム
EXTD=YEAR: 2005
EXTT0=
EXTT1=
EXTT2=
EXTT3=
EXTT4=
EXTT5=
EXTT6=
EXTT7=
EXTT8=
EXTT9=
EXTT10=
PLAYORDER=
